# xmcd CD database file
#
# Track frame offsets:
#	150
#	13910
#	28410
#	41900
#	55215
#	68875
#	77917
#	88737
#	111517
#	125355
#	137377
#
# Disc length: 2059 seconds
#
# Revision: 1
# Processed by: cddbd v1.5.2PL0 Copyright (c) Steve Scherf et al.
# Submitted via: CDex 1.51
#
DISCID=9e08090b
DTITLE=Rita Engebretsen og Helge Borglund - Frem fra Glemselen kapittel 4
DYEAR=1976
DGENRE=Schillingsviser
TTITLE0=Rita Engebretsen - Elvira Madigan
TTITLE1=Helge Borglund - Det Er Det Samme Hvor Jeg Drar
TTITLE2=Rita Engebretsen og Helge Borglund - Fars Sang
TTITLE3=Helge Borglund - Vi Seiler Fopr Velstand Og Lykke
TTITLE4=Rita Engebretsen - Husmannsdottera
TTITLE5=Helge Borglund - Sangen Om Solveig
TTITLE6=Rita Engebretsen - Cecilla Og Rallaren
TTITLE7=Helge Borglund - Nittedalsmordet
TTITLE8=Rita Engebretsen - Tulla
TTITLE9=Helge Borglund - En Fanges Siste Hilsen
TTITLE10=Rita Engebretsen - I Aurdal I Valdres
EXTD=YEAR: 1976
EXTT0=
EXTT1=
EXTT2=
EXTT3=
EXTT4=
EXTT5=
EXTT6=
EXTT7=
EXTT8=
EXTT9=
EXTT10=
PLAYORDER=
